<?xml version="1.0" encoding="UTF-8" standalone="no"?>
<!-- Created with Inkscape (http://www.inkscape.org/) -->

<svg
   version="1.1"
   id="svg1"
   width="50"
   height="50"
   viewBox="0 0 50 50"
   sodipodi:docname="bangla icon purple.svg"
   xml:space="preserve"
   inkscape:version="1.3.2 (091e20e, 2023-11-25, custom)"
   xmlns:inkscape="http://www.inkscape.org/namespaces/inkscape"
   xmlns:sodipodi="http://sodipodi.sourceforge.net/DTD/sodipodi-0.dtd"
   xmlns="http://www.w3.org/2000/svg"
   xmlns:svg="http://www.w3.org/2000/svg"><defs
     id="defs1" /><sodipodi:namedview
     id="namedview1"
     pagecolor="#ffffff"
     bordercolor="#000000"
     borderopacity="0.25"
     inkscape:showpageshadow="2"
     inkscape:pageopacity="0.0"
     inkscape:pagecheckerboard="0"
     inkscape:deskcolor="#d1d1d1"
     showgrid="false"
     inkscape:zoom="10.309617"
     inkscape:cx="21.581791"
     inkscape:cy="24.103708"
     inkscape:window-width="1920"
     inkscape:window-height="991"
     inkscape:window-x="-9"
     inkscape:window-y="-9"
     inkscape:window-maximized="1"
     inkscape:current-layer="g1" /><g
     inkscape:groupmode="layer"
     inkscape:label="Image"
     id="g1"><path
       style="fill:#8b00ff;stroke-width:0.097943;fill-opacity:1"
       d="m 9.7230781,49.756376 c -0.746905,-0.347718 -1.600885,-1.200453 -1.942225,-1.939393 l -0.28103,-0.608384 V 35.55336 23.89812 l 0.26991,-0.79633 c 0.331085,-0.976825 0.928025,-1.89416 2.191295,-3.36743 1.0515499,-1.226355 1.4600049,-1.814065 1.8370749,-2.643295 0.21951,-0.48274 0.256255,-0.747205 0.35382,-2.54652 0.12009,-2.214785 0.23746,-3.229895 0.73925,-6.39368 0.18608,-1.173235 0.338325,-2.19543 0.338325,-2.27155 0,-0.0928 -0.13714,-0.148315 -0.416255,-0.16851 l -0.41626,-0.0301 0.0266,-1.371205 c 0.0503,-2.59221 0.471415,-3.5234 1.84344,-4.07634 C 14.838023,0.003035 14.890213,0 18.273568,0 c 3.930785,0 4.15461,0.03535 4.890295,0.772125 0.567355,0.56821 0.643495,0.91676 0.643495,2.945765 0,1.653925 -0.0093,1.738725 -0.195885,1.78752 -0.10774,0.02815 -0.195885,0.06833 -0.195885,0.08925 0,0.0209 0.218475,1.415135 0.4855,3.09827 0.5869,3.699405 0.65985,4.27956 0.73582,5.851635 0.06981,1.444455 0.14904,2.28618 0.209525,2.2257 0.0239,-0.0239 0.0867,-1.162545 0.139515,-2.530285 0.107125,-2.774045 0.302495,-5.13124 0.57142,-6.89424 0.159515,-1.045745 0.168455,-1.41413 0.08105,-3.34147 C 25.540748,1.850375 25.541458,1.8355 25.764143,1.37549 26.032868,0.82038 26.574963,0.401855 27.327058,0.168835 27.800813,0.022055 28.338973,0 31.446923,0 c 3.444985,0 3.591385,0.0076 4.02766,0.209335 0.56633,0.261865 1.19569,0.823335 1.38727,1.23763 0.108555,0.23474 0.155225,0.794605 0.18147,2.176935 0.0346,1.821265 0.031,1.86154 -0.167695,1.889945 -0.23473,0.03355 -0.25861,-0.268925 0.299255,3.79076 0.420535,3.060345 0.60923,4.950915 0.69276,6.940935 l 0.06523,1.55406 1.760865,2.657495 c 1.930115,2.912935 2.558055,4.079695 2.72168,5.057105 0.07342,0.4386 0.09779,3.86609 0.07834,11.01861 l -0.02824,10.381979 -0.425405,0.804632 c -0.465935,0.881295 -1.02307,1.57029 -1.618605,2.001694 L 40.036518,50 25.139358,49.999 10.242203,49.998 Z M 25.057973,35.626815 c -0.0309,-12.27852 0.0271,-11.330125 -0.76863,-12.5613 -0.221185,-0.342215 -1.148815,-1.379755 -2.061405,-2.30564 l -1.659255,-1.683425 0.06101,-0.38156 c 0.09966,-0.62324 -0.139615,-4.547635 -0.399365,-6.549955 -0.13277,-1.023505 -0.361565,-2.81954 -0.508435,-3.991185 l -0.26703,-2.130265 h -1.19701 c -0.65836,0 -1.217215,0.03305 -1.241905,0.07346 -0.07257,0.11874 -0.63253,3.516525 -0.74653,4.52987 -0.187245,1.66439 -0.589765,7.622925 -0.533965,7.90433 0.0473,0.23862 -0.0627,0.406485 -0.853525,1.30233 -0.499315,0.565625 -1.295865,1.441205 -1.770115,1.945735 -0.97434,1.036555 -1.432545,1.85321 -1.71092,3.04937 -0.15582,0.66953 -0.17372,1.65348 -0.202175,11.11261 -0.01715,5.70792 -0.0094,10.434903 0.01725,10.504408 0.03895,0.101546 1.406,0.12637 6.959015,0.12637 h 6.910515 z m -7.73899,7.558259 c -2.51162,-0.454156 -4.427725,-2.243306 -4.92157,-4.595474 -0.204425,-0.97367 -0.207775,-7.6322 -0.0045,-8.592235 0.23796,-1.122865 0.78457,-2.121095 1.7248,-3.149855 0.90472,-0.98991 2.26215,-1.47523 4.106715,-1.46827 1.24654,0.0045 1.92201,0.176635 2.938295,0.7479 0.81141,0.456105 1.840445,1.55021 2.27915,2.42328 0.60723,1.208445 0.655745,1.63232 0.655745,5.72968 0,4.2465 -0.0295,4.464885 -0.824235,6.097437 -0.86948,1.786142 -1.69659,2.469134 -3.40428,2.811121 -0.903665,0.180971 -1.534555,0.180084 -2.550295,-0.0036 z m 1.92526,-3.410183 c 0.37272,-0.155734 0.554455,-0.539396 0.793435,-1.675011 0.55321,-2.62885 0.338405,-7.525395 -0.37668,-8.5865 -0.268745,-0.398795 -0.606705,-0.475515 -1.720285,-0.390525 l -0.84114,0.06419 -0.164755,0.342805 c -0.09061,0.18854 -0.24517,0.761505 -0.34346,1.27326 -0.24719,1.287035 -0.24826,5.10477 -0.002,6.44453 0.21242,1.15477 0.49467,1.9601 0.790735,2.256165 0.38324,0.383237 1.282515,0.514023 1.863955,0.271081 z m 19.2546,6.601191 c 0.19331,-0.19331 0.195885,-0.326477 0.195885,-10.121787 0,-9.59439 -0.0064,-9.94449 -0.19146,-10.4824 -0.309005,-0.89813 -0.74992,-1.639175 -1.79814,-3.02212 -0.542045,-0.71513 -1.367115,-1.837985 -1.8335,-2.49524 l -0.847965,-1.195 -0.06646,-1.792265 C 33.824573,13.690635 33.555498,10.555025 33.145728,7.81095 L 32.981193,6.70909 h -1.63695 -1.636945 l -0.157315,1.05289 c -0.251995,1.68661 -0.337135,2.763915 -0.56313,7.125365 l -0.213155,4.113615 -0.30393,0.36166 c -0.167165,0.198915 -0.518465,0.6064 -0.78067,0.905525 l -0.476745,0.54386 0.39827,0.661565 c 0.83077,1.379995 1.15295,2.30914 1.34432,3.87694 0.048,0.393295 0.0854,0.46153 0.22197,0.405085 1.092265,-0.451405 2.957685,-0.521065 4.033,-0.15059 2.048535,0.70577 3.552445,2.37613 3.97466,4.414565 0.12677,0.612055 0.146135,1.388 0.1161,4.6523 -0.03425,3.72264 -0.04655,3.945895 -0.247035,4.48338 -0.40274,1.079754 -0.81519,1.717378 -1.58926,2.45692 -1.29329,1.235605 -2.521515,1.687388 -4.358385,1.603159 -1.28238,-0.0588 -2.02669,-0.287788 -2.95173,-0.908092 l -0.625055,-0.419149 v 2.341941 2.341939 h 5.386875 c 5.256285,0 5.391625,-0.0048 5.58276,-0.195886 z m -6.105015,-7.111537 c 0.578665,-0.155215 0.949075,-2.094345 0.95213,-4.984445 0.0025,-2.3483 -0.162635,-3.56772 -0.60343,-4.45642 -0.23686,-0.477535 -0.32278,-0.55914 -0.756905,-0.7189 -0.679045,-0.249885 -1.473145,-0.18533 -1.726295,0.140335 -0.516905,0.664965 -0.870115,2.82665 -0.86726,5.307695 0.002,1.749835 0.09331,2.696105 0.344255,3.568115 0.207925,0.722495 0.479025,0.99986 1.07398,1.098785 0.605265,0.100635 1.301955,0.12036 1.583525,0.04485 z M 20.477298,3.96668 V 3.281075 h -2.39961 -2.39961 v 0.685605 0.6856 h 2.39961 2.39961 z m 13.32027,0 V 3.281075 h -2.44858 -2.44858 v 0.685605 0.6856 h 2.44858 2.44858 z"
       id="path1" /></g></svg>
