<?xml version="1.0" encoding="UTF-8" standalone="no"?>
<!-- Created with Inkscape (http://www.inkscape.org/) -->

<svg
   version="1.1"
   id="svg1"
   width="50"
   height="50"
   viewBox="0 0 50 50"
   sodipodi:docname="cibo icon.svg"
   xml:space="preserve"
   inkscape:version="1.3.2 (091e20e, 2023-11-25, custom)"
   xmlns:inkscape="http://www.inkscape.org/namespaces/inkscape"
   xmlns:sodipodi="http://sodipodi.sourceforge.net/DTD/sodipodi-0.dtd"
   xmlns="http://www.w3.org/2000/svg"
   xmlns:svg="http://www.w3.org/2000/svg"><defs
     id="defs1" /><sodipodi:namedview
     id="namedview1"
     pagecolor="#ffffff"
     bordercolor="#000000"
     borderopacity="0.25"
     inkscape:showpageshadow="2"
     inkscape:pageopacity="0.0"
     inkscape:pagecheckerboard="0"
     inkscape:deskcolor="#d1d1d1"
     showgrid="false"
     inkscape:zoom="7.29"
     inkscape:cx="-0.20576132"
     inkscape:cy="49.314129"
     inkscape:window-width="1920"
     inkscape:window-height="991"
     inkscape:window-x="-9"
     inkscape:window-y="-9"
     inkscape:window-maximized="1"
     inkscape:current-layer="g1" /><g
     inkscape:groupmode="layer"
     inkscape:label="Image"
     id="g1"><path
       style="fill:#000000"
       id="path3" /><path
       style="fill:#000000"
       id="path2" /><path
       style="fill:#ffffff;stroke-width:0.0834145"
       d="m 2.11516,49.802945 c -0.6145,-0.23993 -1.15598,-0.76952 -1.4353,-1.40379 -0.19163,-0.43514 -0.22498,-0.70744 -0.26144,-2.13451 l -0.0418,-1.63575 h 17.00345 17.00346 l -0.002,1.63575 c -0.002,1.43186 -0.0268,1.69017 -0.20023,2.07241 -0.31952,0.70441 -0.63522,1.04111 -1.27671,1.36167 l -0.6029,0.30127 -14.85256,-0.005 C 3.0293,49.989995 2.58254,49.984895 2.11531,49.802515 Z m 33.44367,-0.36554 c 0.51243,-0.97758 0.58007,-1.41906 0.58135,-3.79436 10e-4,-2.03797 -0.0102,-2.17418 -0.20124,-2.41699 -0.11132,-0.14152 -0.25414,-0.25799 -0.31738,-0.25881 -0.0632,-10e-4 -0.17615,-0.0402 -0.2509,-0.0876 -0.11172,-0.0707 -0.0972,-0.14037 0.0814,-0.39118 0.31247,-0.43883 0.60679,-1.33134 0.66349,-2.01202 0.0646,-0.77614 -0.0986,-1.51551 -0.5133,-2.32507 l -0.33904,-0.66184 0.29557,-0.10304 c 0.4922,-0.17158 0.61929,-0.55523 0.54335,-1.64021 -0.21176,-3.02522 -1.44703,-5.92538 -3.46834,-8.14293 l -0.37019,-0.40614 -0.16201,-2.43455 c -0.0891,-1.339 -0.17241,-2.44253 -0.18513,-2.45229 -0.0127,-0.01 -0.41056,0.004 -0.88408,0.0301 l -0.86095,0.0479 0.0518,0.35362 c 0.0285,0.1945 0.081,0.92084 0.11674,1.6141 l 0.065,1.26047 -0.52532,-0.31166 c -0.28893,-0.17141 -0.86591,-0.48642 -1.28217,-0.70003 -0.73636,-0.37788 -0.757,-0.39826 -0.76297,-0.7535 -0.004,-0.20082 -0.12822,-2.01307 -0.27743,-4.02723 -0.14922,-2.01416 -0.25373,-3.69507 -0.23225,-3.73536 0.0215,-0.0403 4.40903,-0.0732 9.7501,-0.0732 h 9.71103 l 0.005,0.26856 c 0.002,0.1477 -0.55754,7.79419 -1.24441,16.99218 l -1.24887,16.72363 h -4.51656 -4.51656 z m -3.95851,-28.97846 c 0.17409,-0.0356 0.19234,-0.10672 0.16797,-0.6547 -0.0461,-1.03732 -0.0556,-1.0544 -0.58487,-1.05317 -0.2541,5e-4 -0.6268,0.0283 -0.82821,0.0616 l -0.36622,0.0605 10e-4,0.49992 c 5e-4,0.27496 0.0269,0.65554 0.0583,0.84574 l 0.0572,0.34582 0.64971,-0.0329 c 0.35734,-0.0181 0.73761,-0.0509 0.84503,-0.0728 z M 2.18863,42.711175 c -0.22428,-0.0795 -0.60268,-0.31605 -0.84088,-0.52573 -1.46199,-1.28689 -1.02026,-3.81552 0.78449,-4.49077 0.49265,-0.18432 0.76438,-0.19468 5.10705,-0.19468 h 4.58672 l 4.0276,2.68554 4.02759,2.68555 -8.64239,-0.008 c -7.3665,-0.007 -8.70259,-0.029 -9.05018,-0.1522 z m 23.55503,-0.0245 c 0.31528,-0.30189 6.72251,-4.92022 6.88628,-4.96363 0.0829,-0.022 0.3676,0.10562 0.63269,0.28354 0.67956,0.4561 1.1209,1.31404 1.1209,2.17896 0,1.17875 -0.82112,2.27512 -1.93581,2.58471 -0.21131,0.0587 -1.70446,0.1 -3.62789,0.10029 -3.20727,5e-4 -3.26515,-0.003 -3.07617,-0.18387 z m -6.87625,-2.57452 -3.8462,-2.56333 3.66807,-0.0256 c 2.01744,-0.014 5.35132,-0.014 7.40862,0 l 3.74055,0.0256 -3.52675,2.56348 c -1.9397,1.40991 -3.54279,2.56341 -3.56242,2.56333 -0.0196,-8e-5 -1.76646,-1.15365 -3.88187,-2.56348 z m -18.3706,-4.62318 c 0,-0.44852 0.3894,-2.18048 0.63983,-2.84581 0.59462,-1.57975 1.35816,-2.79344 2.52734,-4.01732 1.81668,-1.90168 4.00198,-3.06936 6.50348,-3.47504 1.35246,-0.21933 13.23339,-0.22234 14.48734,-0.003 4.67136,0.81462 8.2435,4.1197 9.38397,8.68244 0.12197,0.48797 0.25095,1.11793 0.28662,1.39991 l 0.0649,0.5127 H 17.44357 0.49685 Z m 9.76563,-4.23898 v -0.8789 h -0.8789103 -0.87891 v 0.8789 0.87891 h 0.87891 0.8789103 z m 5.37109,0 v -0.8789 h -0.87891 -0.8789 v 0.8789 0.87891 h 0.8789 0.87891 z m 5.37109,0 v -0.8789 h -0.8789 -0.87891 v 0.8789 0.87891 h 0.87891 0.8789 z m 5.27344,0 v -0.8789 h -0.83008 -0.83007 v 0.8789 0.87891 h 0.83007 0.83008 z m -13.3789,-3.56445 v -0.83008 H 12.06908 11.239 v 0.83008 0.83008 h 0.83008 0.83008 z m 5.37109,0 v -0.83008 h -0.87891 -0.8789 v 0.83008 0.83008 h 0.8789 0.87891 z m 5.37109,0 v -0.83008 h -0.8789 -0.87891 v 0.83008 0.83008 h 0.87891 0.8789 z m -11.62109,-6.83806 c -3.1813403,-0.65283 -5.53934,-2.79808 -6.59914,-6.00373 -0.25617,-0.77486 -0.27442,-0.93727 -0.27442,-2.44141 0,-1.50414 0.0183,-1.66654 0.27442,-2.4414 0.97296,-2.94296 2.9169597,-4.88364 5.81789,-5.80795 0.96694,-0.30809 3.01443,-0.46271 3.39934,-0.25671 0.3055,0.16349 0.26452,0.47287 -0.10952,0.82687 -1.3424,1.27051 -2.12475,3.25038 -1.97326,4.99364 0.25194,2.89918 2.33836,5.18201 5.19403,5.68301 0.9518,0.16699 2.09602,0.0824 2.98584,-0.22083 1.02482,-0.34919 1.19119,0.009 0.55528,1.19604 -0.54357,1.01452 -0.92364,1.52352 -1.66821,2.2341 -1.27459,1.21642 -2.77674,1.97565 -4.5196,2.28435 -0.77545,0.13734 -2.3001,0.11461 -3.08265,-0.046 z m 12.56547,-6.55675 c -0.036,-0.036 -0.0655,-0.65141 -0.0655,-1.36756 v -1.30208 H 37.0718 49.62338 l -0.0271,1.34277 -0.0272,1.34278 -12.45894,0.0248 c -6.85241,0.0136 -12.4884,-0.005 -12.52441,-0.0407 z M 36.14134,4.935305 V 5e-6 h 0.92864 0.92863 l -0.0253,4.90722 -0.0253,4.90723 -0.90332,0.0281 -0.90332,0.0281 z"
       id="path4" /></g></svg>
