<?xml version="1.0" encoding="UTF-8" standalone="no"?>
<!-- Created with Inkscape (http://www.inkscape.org/) -->

<svg
   version="1.1"
   id="svg1"
   width="50"
   height="50"
   viewBox="0 0 50 50"
   sodipodi:docname="nasone icon.svg"
   xml:space="preserve"
   inkscape:version="1.3.2 (091e20e, 2023-11-25, custom)"
   xmlns:inkscape="http://www.inkscape.org/namespaces/inkscape"
   xmlns:sodipodi="http://sodipodi.sourceforge.net/DTD/sodipodi-0.dtd"
   xmlns="http://www.w3.org/2000/svg"
   xmlns:svg="http://www.w3.org/2000/svg"><defs
     id="defs1" /><sodipodi:namedview
     id="namedview1"
     pagecolor="#ffffff"
     bordercolor="#000000"
     borderopacity="0.25"
     inkscape:showpageshadow="2"
     inkscape:pageopacity="0.0"
     inkscape:pagecheckerboard="0"
     inkscape:deskcolor="#d1d1d1"
     showgrid="false"
     inkscape:zoom="5.1548084"
     inkscape:cx="45.6855"
     inkscape:cy="75.366525"
     inkscape:window-width="1920"
     inkscape:window-height="991"
     inkscape:window-x="-9"
     inkscape:window-y="-9"
     inkscape:window-maximized="1"
     inkscape:current-layer="g1" /><g
     inkscape:groupmode="layer"
     inkscape:label="Image"
     id="g1"><path
       style="fill:#ffffff;stroke-width:0.0244525"
       d="m 13.262888,46.057046 0.0066,-3.94297 0.08864,-0.36785 c 0.261732,-1.08622 0.559304,-1.6497 1.224459,-2.31862 l 0.361432,-0.36348 v -1.27758 -1.27759 l -0.128796,-0.0151 c -0.358409,-0.0421 -0.865658,-0.24286 -1.140557,-0.45136 -0.258791,-0.19629 -0.488368,-0.55614 -0.634894,-0.99516 -0.105289,-0.31547 -0.132982,-0.57692 -0.118905,-1.12262 0.01395,-0.54086 0.05105,-0.71853 0.225391,-1.07941 0.213957,-0.44287 0.434827,-0.65699 0.929697,-0.90128 0.270054,-0.13331 0.696039,-0.28336 0.804446,-0.28336 0.03569,0 0.106272,-0.0453 0.183206,-0.11749 l 0.125147,-0.1175 -0.0062,-8.4643 -0.0062,-8.46429 -0.1087,-0.11076 c -0.05979,-0.0609 -0.147815,-0.12348 -0.19562,-0.13902 -0.335261,-0.10902 -0.832737,-0.40734 -1.004603,-0.60244 -0.227906,-0.25871 -0.40897,-0.66126 -0.478855,-1.06462 -0.03027,-0.17469 -0.03642,-0.33664 -0.02759,-0.72612 0.01,-0.44083 0.01914,-0.53076 0.07577,-0.7458 0.07048,-0.2676 0.227847,-0.616 0.377946,-0.83677 0.18317,-0.26941 0.514229,-0.5224404 0.926458,-0.7081004 0.238696,-0.1075 0.236502,-0.10246 0.223194,-0.51265 l -0.0086,-0.26547 -0.177142,-0.30448 c -0.200932,-0.34538 -0.29995,-0.58443 -0.361691,-0.87321 l -0.04267,-0.19959 -0.242202,-0.0858 c -0.680588,-0.24099 -1.050338,-0.62338 -1.257097,-1.3001 -0.06392,-0.20922 -0.06732,-0.24539 -0.0688,-0.73358 -0.0018,-0.60099 0.02577,-0.73646 0.231217,-1.1351 0.230136,-0.44654 0.449851,-0.65302 0.965276,-0.90711 0.68894,-0.33964 1.655489,-0.48862 3.170065,-0.48862 h 0.610887 l 0.346929,-0.11304 c 0.399874,-0.13028 0.761072,-0.27044 0.978049,-0.37953 0.361155,-0.18157 0.607203,-0.40197 1.379824,-1.23602 0.317729,-0.34299003 0.513152,-0.49829003 0.837773,-0.66577003 0.407294,-0.21013 0.739174,-0.29391 1.369341,-0.34568 0.40415,-0.0332 0.640956,-0.0218 1.075911,0.0519 0.377019,0.0639 0.702085,0.16572 0.990327,0.31024 0.462405,0.23185 0.675256,0.41825 1.235406,1.08189003 0.761854,0.9026 1.043286,1.10747 1.906742,1.38802 l 0.305656,0.0993 0.749597,0.0149 c 1.782594,0.0353 2.607453,0.18093 3.281981,0.57944 0.268551,0.15866 0.453099,0.36199 0.600478,0.66159 0.186758,0.37966 0.208652,0.48828 0.206104,1.02247 -0.0024,0.50154 -0.0327,0.66949 -0.179105,0.99237 -0.331771,0.73171 -0.811897,1.06026 -1.822563,1.24721 -0.03683,0.007 -0.06276,0.0531 -0.105011,0.18739 -0.07117,0.22624 -0.2261,0.53446 -0.402506,0.80076 l -0.137683,0.20785 0.01445,0.39637 0.01445,0.39637 0.136984,0.0282 c 0.559229,0.11502 1.183259,0.42812 1.445053,0.7250404 0.158521,0.17978 0.359547,0.6122 0.419284,0.9019 0.06919,0.33556 0.05491,1.13294 -0.02602,1.45232 -0.06534,0.25787 -0.273945,0.69502 -0.429891,0.90088 -0.207474,0.27388 -0.678396,0.5683 -1.177013,0.73585 -0.271946,0.0914 -0.338779,0.15483 -0.373575,0.35464 -0.01781,0.10227 -0.02651,0.92641 -0.02651,2.51104 v 2.35882 l 0.09273,0.0905 c 0.05948,0.0581 0.115841,0.0906 0.157195,0.0906 0.07583,0 0.141317,0.0575 0.141317,0.12401 0,0.0448 0.02169,0.0472 0.434032,0.0472 0.238718,5e-5 0.560574,0.0116 0.715236,0.0258 1.2811,0.11698 2.737342,0.78707 3.689389,1.69769 0.684049,0.65429 1.112612,1.48336 1.333926,2.58056 0.14786,0.73302 0.286007,2.34916 0.210945,2.46779 -0.03119,0.0493 -0.413003,0.0852 -1.700872,0.15976 -0.59175,0.0343 -1.181758,0.0787 -1.311127,0.0987 -0.308158,0.0477 -0.593176,0.0481 -0.640331,9.7e-4 -0.01949,-0.0195 -0.04869,-0.12677 -0.0649,-0.23841 -0.138479,-0.95374 -0.317108,-1.3107 -0.882089,-1.76273 -0.397535,-0.31805 -0.822172,-0.51625 -1.36625,-0.63771 l -0.278939,-0.0623 -0.07138,0.0601 c -0.05278,0.0444 -0.100209,0.0601 -0.18199,0.0601 -0.09318,0 -0.123702,0.0131 -0.193744,0.0831 l -0.08314,0.0831 v 3.58389 3.58389 l 0.07085,0.0807 c 0.04515,0.0514 0.111004,0.0914 0.181561,0.1103 0.06611,0.0177 0.116432,0.0471 0.124909,0.073 0.0078,0.0239 0.104914,0.0917 0.215792,0.15077 0.346999,0.18485 0.610825,0.36916 0.793393,0.55428 0.145818,0.14786 0.199248,0.22617 0.310673,0.45534 0.185432,0.38139 0.21872,0.56084 0.204901,1.10454 -0.01005,0.39527 -0.01527,0.43295 -0.09114,0.65698 -0.146978,0.434 -0.392436,0.77649 -0.69181,0.96527 -0.377391,0.23798 -0.459745,0.2857 -0.668628,0.38748 -0.122069,0.0595 -0.328388,0.13805 -0.458484,0.17462 l -0.236539,0.0665 v 1.07829 1.07829 l 0.234969,0.26781 c 0.129233,0.1473 0.429927,0.46588 0.668211,0.70796 0.478139,0.48576 0.5247,0.54576 0.709587,0.91454 0.145159,0.28953 0.264578,0.63361 0.43367,1.24951 l 0.117484,0.42791 0.0063,3.96742 0.0063,3.96742 H 22.79322 13.256374 Z m 16.670485,-0.45849 v -1.93175 h -7.042324 -7.042324 v 1.93175 1.93175 h 7.042324 7.042324 z m -1.115094,-4.70104 c -0.173458,-0.17822 -0.358921,-0.38181 -0.41214,-0.45242 l -0.09676,-0.12839 -5.513081,0.006 -5.513081,0.006 -0.114859,0.14782 c -0.283931,0.36541 -0.53715,0.70725 -0.53715,0.72515 0,0.0108 2.813051,0.0195 6.251225,0.0195 h 6.251225 z m -1.892565,-3.71209 v -0.58833 l -2.500269,0.0142 c -1.375149,0.008 -3.22926,0.0208 -4.120249,0.0289 l -1.619979,0.0147 v 0.55946 0.55947 h 4.120249 4.120248 z m 2.074675,-2.83556 c 0.11019,-0.0263 0.24244,-0.0693 0.293889,-0.0956 0.126988,-0.0648 0.247855,-0.2067 0.247855,-0.29102 0,-0.0923 -0.152033,-0.23678 -0.313764,-0.29823 -0.125054,-0.0475 -0.21334,-0.0482 -6.050265,-0.0476 -3.385607,3.6e-4 -6.082486,0.0104 -6.294777,0.0235 -0.212877,0.0131 -0.40683,0.0377 -0.454379,0.0575 -0.10182,0.0426 -0.180726,0.13919 -0.213741,0.2618 -0.03488,0.12955 0.03721,0.24769 0.205138,0.33616 0.121574,0.0641 0.140457,0.0664 0.63878,0.0791 0.282426,0.007 3.039671,0.0152 6.12721,0.0176 5.496174,0.004 5.617903,0.004 5.814054,-0.0433 z m -1.952412,-7.00336 c 0,-3.22244 0.0038,-3.58439 0.03842,-3.61897 0.02909,-0.0291 0.09053,-0.0384 0.252959,-0.0384 h 0.214534 l 0.25443,-0.18645 c 0.321379,-0.2355 0.654981,-0.5719 0.740499,-0.74669 0.09604,-0.1963 0.140372,-0.46303 0.111196,-0.66905 -0.06372,-0.44994 -0.158476,-0.65968 -0.422064,-0.93424 -0.211958,-0.22078 -0.374148,-0.34468 -0.707792,-0.5407 -0.159306,-0.0936 -0.239305,-0.12615 -0.310023,-0.12615 -0.187376,0 -0.172164,0.27995 -0.172164,-3.16835 v -3.09149 h -4.144696 -4.144701 v 8.35053 8.35053 h 4.144701 4.144701 z m 2.054011,-15.51687 v -0.12226 h -6.284296 -6.284296 v 0.12226 0.12226 h 6.284296 6.284296 z M 27.903815,9.1887656 v -0.24452 h -1.852278 c -1.018753,10e-6 -3.346021,0.007 -5.171707,0.0163 l -3.319429,0.0163 v 0.22825 0.22826 h 5.171707 5.171707 z m 1.846164,-3.68809 0.07336,-0.0324 -0.06467,-0.0559 c -0.147089,-0.12707 0.03583,-0.12378 -6.879848,-0.12378 -5.10496,0 -6.450144,0.006 -6.621089,0.0316 -0.236844,0.0348 -0.291951,0.0503 -0.275332,0.0772 0.01118,0.0181 0.261589,0.0799 0.489863,0.12087 0.07058,0.0127 2.887505,0.0205 6.663309,0.0184 5.375682,-0.003 6.554117,-0.009 6.614405,-0.036 z m -5.329161,-2.35779 c -0.681633,-0.6164 -0.836501,-0.68918 -1.468637,-0.6902 -0.596357,-9.6e-4 -0.757907,0.0706 -1.246115,0.5518 l -0.294394,0.29017 1.589074,5.3e-4 1.589074,5.3e-4 z"
       id="path1" /></g></svg>
